<svg width="114" height="37" viewBox="0 0 114 37" fill="none" xmlns="http://www.w3.org/2000/svg">
<path d="M47.546 31.306C48.1547 31.306 48.679 31.2363 49.119 31.097C49.559 30.9577 49.9183 30.7633 50.197 30.514C50.483 30.2573 50.692 29.9567 50.824 29.612C50.956 29.26 51.022 28.875 51.022 28.457C51.022 27.643 50.7323 27.0013 50.153 26.532C49.5737 26.0553 48.7047 25.817 47.546 25.817H44.136V31.306H47.546ZM44.136 18.92V24.299H46.952C47.5533 24.299 48.074 24.233 48.514 24.101C48.9613 23.969 49.328 23.7857 49.614 23.551C49.9073 23.3163 50.1237 23.034 50.263 22.704C50.4023 22.3667 50.472 22 50.472 21.604C50.472 20.6727 50.1933 19.9943 49.636 19.569C49.0787 19.1363 48.2133 18.92 47.04 18.92H44.136ZM47.04 17.237C48.008 17.237 48.8403 17.3323 49.537 17.523C50.241 17.7137 50.8167 17.985 51.264 18.337C51.7187 18.689 52.0523 19.1217 52.265 19.635C52.4777 20.141 52.584 20.713 52.584 21.351C52.584 21.7397 52.5217 22.1137 52.397 22.473C52.2797 22.825 52.1 23.155 51.858 23.463C51.616 23.771 51.308 24.0497 50.934 24.299C50.5673 24.541 50.1347 24.739 49.636 24.893C50.7947 25.113 51.6637 25.5273 52.243 26.136C52.8297 26.7373 53.123 27.5293 53.123 28.512C53.123 29.1793 52.9983 29.788 52.749 30.338C52.507 30.888 52.1477 31.361 51.671 31.757C51.2017 32.153 50.6223 32.461 49.933 32.681C49.2437 32.8937 48.459 33 47.579 33H42.013V17.237H47.04ZM57.6053 21.857V33H55.6473V21.857H57.6053ZM58.0233 18.359C58.0233 18.5497 57.983 18.7293 57.9023 18.898C57.829 19.0593 57.7263 19.206 57.5943 19.338C57.4697 19.4627 57.3193 19.5617 57.1433 19.635C56.9747 19.7083 56.795 19.745 56.6043 19.745C56.4137 19.745 56.234 19.7083 56.0653 19.635C55.904 19.5617 55.761 19.4627 55.6363 19.338C55.5117 19.206 55.4127 19.0593 55.3393 18.898C55.266 18.7293 55.2293 18.5497 55.2293 18.359C55.2293 18.1683 55.266 17.9887 55.3393 17.82C55.4127 17.644 55.5117 17.4937 55.6363 17.369C55.761 17.237 55.904 17.1343 56.0653 17.061C56.234 16.9877 56.4137 16.951 56.6043 16.951C56.795 16.951 56.9747 16.9877 57.1433 17.061C57.3193 17.1343 57.4697 17.237 57.5943 17.369C57.7263 17.4937 57.829 17.644 57.9023 17.82C57.983 17.9887 58.0233 18.1683 58.0233 18.359ZM62.6705 23.474C62.9125 23.2027 63.1692 22.957 63.4405 22.737C63.7118 22.517 63.9978 22.33 64.2985 22.176C64.6065 22.0147 64.9292 21.8937 65.2665 21.813C65.6112 21.725 65.9815 21.681 66.3775 21.681C66.9862 21.681 67.5215 21.7837 67.9835 21.989C68.4528 22.187 68.8415 22.473 69.1495 22.847C69.4648 23.2137 69.7032 23.6573 69.8645 24.178C70.0258 24.6987 70.1065 25.2743 70.1065 25.905V33H68.1375V25.905C68.1375 25.0617 67.9432 24.409 67.5545 23.947C67.1732 23.4777 66.5902 23.243 65.8055 23.243C65.2262 23.243 64.6835 23.3823 64.1775 23.661C63.6788 23.9397 63.2168 24.3173 62.7915 24.794V33H60.8225V21.857H61.9995C62.2782 21.857 62.4505 21.9927 62.5165 22.264L62.6705 23.474Z" fill="#F6D167"/>
<path d="M84.8487 32.098C86.2127 32.098 87.2431 31.8047 87.9397 31.218C88.6437 30.624 88.9957 29.7917 88.9957 28.721C88.9957 28.2297 88.9004 27.7897 88.7097 27.401C88.5264 27.005 88.2587 26.6713 87.9067 26.4C87.5547 26.1213 87.1221 25.9087 86.6087 25.762C86.0954 25.6153 85.5124 25.542 84.8597 25.542H80.9437V32.098H84.8487ZM80.9437 18.326V24.717H84.3097C85.0284 24.717 85.6407 24.6253 86.1467 24.442C86.6601 24.2587 87.0781 24.0167 87.4007 23.716C87.7307 23.4153 87.9727 23.0743 88.1267 22.693C88.2807 22.3117 88.3577 21.9193 88.3577 21.516C88.3577 20.4673 88.0241 19.6753 87.3567 19.14C86.6967 18.5973 85.6737 18.326 84.2877 18.326H80.9437ZM84.2877 17.435C85.1751 17.435 85.9451 17.523 86.5977 17.699C87.2504 17.875 87.7894 18.1353 88.2147 18.48C88.6401 18.8173 88.9554 19.2317 89.1607 19.723C89.3661 20.2143 89.4687 20.7717 89.4687 21.395C89.4687 21.8057 89.3954 22.2017 89.2487 22.583C89.1094 22.9643 88.9041 23.3163 88.6327 23.639C88.3687 23.9617 88.0387 24.244 87.6427 24.486C87.2541 24.7207 86.8067 24.9003 86.3007 25.025C87.5254 25.201 88.4641 25.608 89.1167 26.246C89.7767 26.8767 90.1067 27.709 90.1067 28.743C90.1067 29.403 89.9894 29.997 89.7547 30.525C89.5201 31.053 89.1791 31.5003 88.7317 31.867C88.2844 32.2337 87.7344 32.516 87.0817 32.714C86.4291 32.9047 85.6884 33 84.8597 33H79.8107V17.435H84.2877ZM97.3782 21.879C98.1629 21.879 98.8632 22.0147 99.4792 22.286C100.103 22.55 100.627 22.9277 101.052 23.419C101.478 23.9103 101.8 24.5043 102.02 25.201C102.248 25.8903 102.361 26.664 102.361 27.522C102.361 28.38 102.248 29.1537 102.02 29.843C101.8 30.5323 101.478 31.1227 101.052 31.614C100.627 32.1053 100.103 32.483 99.4792 32.747C98.8632 33.011 98.1629 33.143 97.3782 33.143C96.5936 33.143 95.8896 33.011 95.2662 32.747C94.6502 32.483 94.1259 32.1053 93.6932 31.614C93.2679 31.1227 92.9416 30.5323 92.7142 29.843C92.4942 29.1537 92.3842 28.38 92.3842 27.522C92.3842 26.664 92.4942 25.8903 92.7142 25.201C92.9416 24.5043 93.2679 23.9103 93.6932 23.419C94.1259 22.9277 94.6502 22.55 95.2662 22.286C95.8896 22.0147 96.5936 21.879 97.3782 21.879ZM97.3782 32.318C98.0309 32.318 98.5992 32.208 99.0832 31.988C99.5746 31.7607 99.9816 31.438 100.304 31.02C100.634 30.602 100.88 30.0997 101.041 29.513C101.203 28.919 101.283 28.2553 101.283 27.522C101.283 26.796 101.203 26.136 101.041 25.542C100.88 24.948 100.634 24.442 100.304 24.024C99.9816 23.5987 99.5746 23.2723 99.0832 23.045C98.5992 22.8177 98.0309 22.704 97.3782 22.704C96.7256 22.704 96.1536 22.8177 95.6622 23.045C95.1782 23.2723 94.7712 23.5987 94.4412 24.024C94.1186 24.442 93.8729 24.948 93.7042 25.542C93.5429 26.136 93.4622 26.796 93.4622 27.522C93.4622 28.2553 93.5429 28.919 93.7042 29.513C93.8729 30.0997 94.1186 30.602 94.4412 31.02C94.7712 31.438 95.1782 31.7607 95.6622 31.988C96.1536 32.208 96.7256 32.318 97.3782 32.318ZM112.869 33H111.868C111.765 33 111.685 32.9707 111.626 32.912C111.567 32.846 111.52 32.7837 111.483 32.725L108.161 27.874C108.132 28.006 108.077 28.1343 107.996 28.259L104.828 32.725C104.777 32.791 104.722 32.8533 104.663 32.912C104.612 32.9707 104.542 33 104.454 33H103.508L107.49 27.401L103.662 22.055H104.663C104.766 22.055 104.843 22.077 104.894 22.121C104.945 22.165 104.989 22.2163 105.026 22.275L108.238 26.906C108.253 26.8473 108.275 26.785 108.304 26.719C108.341 26.653 108.377 26.587 108.414 26.521L111.417 22.286C111.461 22.22 111.509 22.165 111.56 22.121C111.611 22.077 111.677 22.055 111.758 22.055H112.715L108.898 27.335L112.869 33Z" fill="#2D3047"/>
<path fill-rule="evenodd" clip-rule="evenodd" d="M13.7336 14.1862L31.3587 17.4273L18.449 8.40599C18.1273 8.59717 17.7555 8.72263 17.3749 8.75848C16.9706 8.79731 16.5516 8.74056 16.168 8.5673L3.06642 16.0323V35.1176L0.212991 34.6247C0.106762 34.6068 0.0182378 34.5351 0.0182378 34.4275V16.564C-0.0555323 16.2235 0.0979094 15.8591 0.416596 15.6828L15.0142 7.35748C14.8136 6.88849 14.7132 6.29404 14.7604 5.5562L16.1001 5.63984C16.0647 6.18949 16.1355 6.58977 16.2713 6.87057C16.4985 6.91538 16.705 7.05578 16.8231 7.27683C16.8408 7.31267 16.8585 7.34852 16.8703 7.38437C16.9765 7.41125 17.0886 7.42021 17.1978 7.41424C17.0709 7.16033 17.0827 6.84368 17.2539 6.59276C17.4132 6.35677 17.6758 6.23429 17.9414 6.24326C17.8942 6.1865 17.8411 6.14169 17.7909 6.09688C17.4398 5.78323 17.1004 5.47853 17.0119 4.47483L17.009 4.47184L17.0001 4.38223C16.3568 4.12234 15.8995 3.48308 15.8995 2.73927C15.8995 2.0074 16.3391 1.3771 16.9676 1.10825V0H18.3103V1.10527C18.9447 1.37113 19.3932 2.00143 19.3932 2.74225C19.3932 3.46814 18.9624 4.09247 18.3427 4.3643C18.387 4.82433 18.5286 4.95278 18.6762 5.08422C18.9417 5.3232 19.2162 5.56815 19.3991 6.18949C19.4965 6.52405 19.5024 6.84368 19.4345 7.13344L34.6518 17.7649C34.8082 17.8754 34.9144 18.0308 34.9646 18.204C34.9882 18.2429 35 18.2877 35 18.3355V32.4141C35 32.5725 34.8672 32.674 34.7138 32.7039L13.7306 36.5873C13.5772 36.6171 13.4444 36.4558 13.4444 36.2975V14.476C13.4473 14.3177 13.5772 14.1593 13.7336 14.1862ZM4.17592 15.4528L7.43065 14.9032V35.8703L4.17592 35.3087V15.4528ZM8.54016 14.715L12.2729 14.0847C12.3791 14.0667 12.4677 14.1743 12.4677 14.2818V36.5036C12.4677 36.6112 12.3791 36.7187 12.2729 36.7008L8.54016 36.0585V14.7896V14.715ZM33.9908 19.3302V31.4493H33.622V19.3302H33.9908ZM16.4247 16.9165V34.2244H15.3152V16.57L16.4247 16.9165ZM19.4552 17.2033V33.7673H18.4401V17.0689L19.4552 17.2033ZM22.1699 17.6484V33.3073H21.2463V17.4751L22.1699 17.6484ZM24.5896 18.0308V32.9698H23.7574V17.8336L24.5896 18.0308ZM26.8204 18.3922V32.5516H26.0827V18.2369L26.8204 18.3922ZM28.88 18.6551V32.2319H28.2338V18.5057L28.88 18.6551ZM30.7243 18.9956V31.9422H30.1695V18.8194L30.7243 18.9956ZM32.4417 19.2884V31.6703H31.9784V19.0733L32.4417 19.2884Z" fill="#F6D167"/>
</svg>
